<?xml version="1.0" encoding="us-ascii" standalone="no"?><svg xmlns="http://www.w3.org/2000/svg" xmlns:xlink="http://www.w3.org/1999/xlink" contentStyleType="text/css" height="174px" preserveAspectRatio="none" style="width:290px;height:174px;background:#FFFFFF;" version="1.1" viewBox="0 0 290 174" width="290px" zoomAndPan="magnify"><defs/><g><!--cluster Hangman--><g id="cluster_Hangman"><rect fill="none" height="161" rx="2.5" ry="2.5" style="stroke:#181818;stroke-width:1.0;" width="193.11" x="91" y="7"/><text fill="#000000" font-family="sans-serif" font-size="14" font-weight="bold" lengthAdjust="spacing" textLength="69.0625" x="153.0238" y="23.9659">Hangman</text></g><g id="elem_uc2"><ellipse cx="187.5574" cy="133.0015" fill="#F1F1F1" rx="80.5574" ry="18.5115" style="stroke:#181818;stroke-width:0.5;"/><text fill="#000000" font-family="sans-serif" font-size="14" lengthAdjust="spacing" textLength="101" x="132.0574" y="137.7345">UC02: Encerrar</text></g><g id="elem_uc1"><ellipse cx="187.5568" cy="62.0006" fill="#F1F1F1" rx="69.1768" ry="17.0206" style="stroke:#181818;stroke-width:0.5;"/><text fill="#000000" font-family="sans-serif" font-size="14" lengthAdjust="spacing" textLength="78" x="145.5568" y="66.7336">UC01: Jogar</text></g><!--entity user--><g id="elem_user"><ellipse cx="26.5" cy="66.97" fill="#F1F1F1" rx="8" ry="8" style="stroke:#181818;stroke-width:0.5;"/><path d="M26.5,74.97 L26.5,101.97 M13.5,82.97 L39.5,82.97 M26.5,101.97 L13.5,116.97 M26.5,101.97 L39.5,116.97 " fill="none" style="stroke:#181818;stroke-width:0.5;"/><text fill="#000000" font-family="sans-serif" font-size="14" lengthAdjust="spacing" textLength="41" x="6" y="133.4359">Player</text></g><!--link user to uc1--><g id="link_user_uc1"><path d="M47.32,93.51 C69.23,88.56 105.36,80.38 135.34,73.59 " fill="none" id="user-uc1" style="stroke:#181818;stroke-width:1.0;"/></g><!--link user to uc2--><g id="link_user_uc2"><path d="M47.32,102.36 C67.48,106.8 99.68,113.88 128.05,120.13 " fill="none" id="user-uc2" style="stroke:#181818;stroke-width:1.0;"/></g><!--SRC=[POsn2iCm34HtVSNXFT1up1eAfLENVe1G5TVWsY2xGmdzzpgXqA5QTATxXv8k3Qt0OhWttAAfj5Wo4KihXalYbnguubdLYBQOSqWAT-hxmTbX9VJfkN3jz-jyy1EEMTIC3MulY_-3nWdd4jY-m4Xlekq9Xc6tF-tf0m00]--></g></svg>